# xmcd
#
# Track frame offsets:
#	150
#	7290
#	21436
#	25673
#	35592
#	43944
#	55389
#	63554
#	77265
#	84287
#	104029
#	119935
#	124766
#	136585
#	153000
#	161558
#	175354
#	191356
#	201779
#	209557
#	214047
#	230663
#	251063
#
# Disc length: 3864 seconds
#
# Revision: 0
# Processed by: cddbd v1.5.2PL0 Copyright (c) Steve Scherf et al.
# Submitted via: dBpowerAMP V4.0
#
DISCID=4b0f1617
DTITLE=Tutor - M.3
DYEAR=1900
DGENRE=
TTITLE0=รบกวนมารักกัน
TTITLE1=specials of love
TTITLE2=ไว้ใจ (base on)
TTITLE3=ดาวเด่น
TTITLE4=you upset me
TTITLE5=How deep is your love?
TTITLE6=What will I be?
TTITLE7=careful/careless
TTITLE8=dwell (อยู่อาศัย)
TTITLE9=เพราะความห่างไกล (Would you like to)
TTITLE10=วิเศษ
TTITLE11=ผิ๊ด...ผิด
TTITLE12=งง
TTITLE13=มีค่ามากมาย
TTITLE14=ขอพักหัวใจไปมีชู้
TTITLE15=อาซิ้ม and I
TTITLE16=หนุ่มสะพานควาย
TTITLE17=ข้องเกี่ยว
TTITLE18=บ้านนอกเข้ากรุง
TTITLE19=เน้นย้ำ
TTITLE20=ขยะ (rubblish)
TTITLE21=Accused
TTITLE22=DATA
EXTD=M.3
EXTT0=
EXTT1=
EXTT2=
EXTT3=
EXTT4=
EXTT5=
EXTT6=
EXTT7=
EXTT8=
EXTT9=
EXTT10=
EXTT11=
EXTT12=
EXTT13=
EXTT14=
EXTT15=
EXTT16=
EXTT17=
EXTT18=
EXTT19=
EXTT20=
EXTT21=
EXTT22=
PLAYORDER=
